<?xml version="1.0" encoding="UTF-8"?>
<svg id="Capa_1" data-name="Capa 1" xmlns="http://www.w3.org/2000/svg" version="1.1" viewBox="0 0 24 24">
  <defs>
    <style>
      .cls-1 {
        fill: #0075be;
        stroke-width: 0px;
      }
    </style>
  </defs>
  <path class="cls-1" d="M15,20c-2.2,0-4.1-.8-5.7-2.3s-2.3-3.4-2.3-5.7.8-4.1,2.3-5.7,3.4-2.3,5.7-2.3,4.1.8,5.7,2.3,2.3,3.4,2.3,5.7-.8,4.1-2.3,5.7-3.4,2.3-5.7,2.3ZM15,18c1.7,0,3.1-.6,4.3-1.8s1.8-2.6,1.8-4.3-.6-3.1-1.8-4.3-2.6-1.8-4.3-1.8-3.1.6-4.3,1.8-1.8,2.6-1.8,4.3.6,3.1,1.8,4.3,2.6,1.8,4.3,1.8ZM17.3,15.7l1.4-1.4-2.7-2.7v-3.6h-2v4.4l3.3,3.3ZM2,9v-2h4v2H2ZM1,13v-2h5v2H1ZM2,17v-2h4v2H2Z"/>
</svg>