<?xml version="1.0" encoding="UTF-8"?>
<svg id="Capa_1" data-name="Capa 1" xmlns="http://www.w3.org/2000/svg" version="1.1" viewBox="0 0 24 24">
  <defs>
    <style>
      .cls-1 {
        fill: #0075be;
        stroke-width: 0px;
      }
    </style>
  </defs>
  <path class="cls-1" d="M13,14h2v-3h3v-2h-3v-3h-2v3h-3v2h3v3ZM8,18c-.6,0-1-.2-1.4-.6-.4-.4-.6-.9-.6-1.4V4c0-.6.2-1,.6-1.4.4-.4.9-.6,1.4-.6h12c.6,0,1,.2,1.4.6s.6.9.6,1.4v12c0,.6-.2,1-.6,1.4-.4.4-.9.6-1.4.6h-12ZM8,16h12V4h-12v12ZM4,22c-.6,0-1-.2-1.4-.6s-.6-.9-.6-1.4V6h2v14h14v2H4ZM8,4v12V4Z"/>
</svg>