<?xml version="1.0" encoding="UTF-8"?>
<svg id="Capa_1" data-name="Capa 1" xmlns="http://www.w3.org/2000/svg" version="1.1" viewBox="0 0 24 24">
  <defs>
    <style>
      .cls-1 {
        fill: #0075be;
        stroke-width: 0px;
      }
    </style>
  </defs>
  <path class="cls-1" d="M12.1,20c-2.2,0-4.1-.8-5.7-2.3-1.6-1.6-2.4-3.4-2.4-5.7v-.2l-1.6,1.6-1.4-1.4,4-4,4,4-1.4,1.4-1.6-1.6v.2c0,1.7.6,3.1,1.8,4.3s2.6,1.8,4.3,1.8.9,0,1.3-.2.8-.3,1.2-.5l1.5,1.5c-.6.4-1.3.6-2,.8s-1.4.3-2.1.3ZM19,16l-4-4,1.4-1.4,1.6,1.6v-.2c0-1.7-.6-3.1-1.8-4.3s-2.6-1.8-4.3-1.8-.9,0-1.3.2-.8.3-1.2.5l-1.5-1.5c.6-.4,1.3-.6,2-.8s1.4-.3,2.1-.3c2.2,0,4.1.8,5.7,2.3s2.4,3.4,2.4,5.7v.2l1.6-1.6,1.4,1.4-4,4Z"/>
</svg>