<?xml version="1.0" encoding="UTF-8"?>
<svg id="Capa_1" data-name="Capa 1" xmlns="http://www.w3.org/2000/svg" version="1.1" viewBox="0 0 24 24">
  <defs>
    <style>
      .cls-1 {
        fill: #0075be;
        stroke-width: 0px;
      }
    </style>
  </defs>
  <path class="cls-1" d="M6.5,20c-1.5,0-2.8-.5-3.9-1.6s-1.6-2.3-1.6-3.9.4-2.5,1.2-3.5c.8-1,1.8-1.7,3.1-2,.4-1.5,1.3-2.8,2.5-3.7s2.7-1.4,4.3-1.4,3.6.7,5,2,2,3,2,5c1.2.1,2.1.6,2.9,1.5s1.1,1.9,1.1,3-.4,2.3-1.3,3.2-1.9,1.3-3.2,1.3h-5.5c-.6,0-1-.2-1.4-.6s-.6-.9-.6-1.4v-5.2l-1.6,1.6-1.4-1.4,4-4,4,4-1.4,1.4-1.6-1.6v5.2h5.5c.7,0,1.3-.2,1.8-.7.5-.5.7-1.1.7-1.8s-.2-1.3-.7-1.8-1.1-.7-1.8-.7h-1.5v-2c0-1.4-.5-2.6-1.5-3.5s-2.2-1.5-3.5-1.5-2.6.5-3.5,1.5-1.5,2.2-1.5,3.5h-.5c-1,0-1.8.3-2.5,1s-1,1.5-1,2.5.3,1.8,1,2.5c.7.7,1.5,1,2.5,1h2.5v2h-2.5Z"/>
</svg>