<?xml version="1.0" encoding="UTF-8"?>
<svg id="Capa_1" data-name="Capa 1" xmlns="http://www.w3.org/2000/svg" version="1.1" viewBox="0 0 24 24">
  <defs>
    <style>
      .cls-1 {
        fill: #0075be;
        fill-rule: evenodd;
        stroke: #0075be;
        stroke-miterlimit: 10;
        stroke-width: .2px;
      }
    </style>
  </defs>
  <path class="cls-1" d="M15.4,12.8c-2.9,0-5.3,2.4-5.3,5.3s2.4,5.3,5.3,5.3,5.3-2.4,5.3-5.3-2.4-5.3-5.3-5.3ZM13.1,2.1v4.5h5.3v6.1h1.5v-7.1L15,.6H6.3c-1.7,0-3,1.4-3,3v15.9c0,1.7,1.4,3,3,3h3.8v-1.5h-3.8c-.8,0-1.5-.7-1.5-1.5V3.7c0-.8.7-1.5,1.5-1.5h6.8ZM12.3,16l5.2,5.3c-.6.4-1.3.6-2.1.6-2.1,0-3.8-1.7-3.8-3.8s.2-1.5.6-2.1ZM18.6,20.2l-5.2-5.3c.6-.4,1.3-.6,2.1-.6,2.1,0,3.8,1.7,3.8,3.8s-.2,1.5-.6,2.1h0ZM14.7,5.2h2.7l-2.7-2.7v2.7Z"/>
</svg>