<?xml version="1.0" encoding="UTF-8"?>
<svg id="Capa_1" data-name="Capa 1" xmlns="http://www.w3.org/2000/svg" version="1.1" viewBox="0 0 24 24">
  <defs>
    <style>
      .cls-1 {
        fill: #0075be;
        stroke: #0075be;
        stroke-miterlimit: 10;
        stroke-width: .2px;
      }
    </style>
  </defs>
  <path class="cls-1" d="M23.7,11.5c0-.6-.3-1.3-.7-1.7-.5-.5-1.1-.7-1.7-.7s-1.3.3-1.7.7l-.2.2v-4.3s0,0,0,0c0,0,0,0,0-.1,0,0,0,0,0,0,0,0,0,0,0-.1,0,0,0,0,0,0L14.3.5s0,0,0,0c0,0,0,0-.1,0,0,0,0,0,0,0,0,0,0,0-.1,0s0,0,0,0H2.8C1.4.3.3,1.4.3,2.8v18.5c0,1.3,1.1,2.4,2.4,2.4h14.1c1.3,0,2.4-1.1,2.4-2.4v-4.3l3-3h0s.7-.7.7-.7c.5-.5.7-1.1.7-1.7ZM18.5,16.3h0s-3.4,3.4-3.4,3.4l-1-1s0,0,0,0l-1-1,6.2-6.2,2.1,2.1-2.8,2.8ZM12.6,18.6l.8.8s0,0,0,0l.7.7-2.1.6.6-2.1ZM14.4,2l3.2,3.2h-1.7c-.8,0-1.5-.7-1.5-1.5v-1.7ZM18.3,21.2c0,.8-.7,1.5-1.5,1.5H2.8c-.8,0-1.5-.7-1.5-1.5V2.8c0-.8.7-1.5,1.5-1.5h10.7v2.4c0,1.3,1.1,2.4,2.4,2.4h2.4v4.8l-6.4,6.4s0,0-.1.2c0,0,0,0,0,0,0,0,0,0,0,0l-1,3.8c0,.2,0,.3.1.5,0,0,.2.1.3.1s0,0,.1,0l3.8-1s0,0,0,0c0,0,0,0,0,0,0,0,0,0,.1,0,0,0,0,0,0,0l2.9-2.9v3.4ZM22.3,12.5l-.3.3-2.1-2.1.3-.3c.5-.5,1.5-.5,2.1,0,.3.3.4.6.4,1s-.1.8-.4,1h0Z"/>
  <path class="cls-1" d="M5.7,3.3h-2.9c-.3,0-.5.2-.5.5v2.9c0,.3.2.5.5.5h2.9c.3,0,.5-.2.5-.5v-2.9c0-.3-.2-.5-.5-.5ZM5.2,6.2h-1.9v-1.9h1.9v1.9h0Z"/>
  <path class="cls-1" d="M7.6,4.7h4.4c.3,0,.5-.2.5-.5s-.2-.5-.5-.5h-4.4c-.3,0-.5.2-.5.5s.2.5.5.5h0Z"/>
  <path class="cls-1" d="M7.6,6.7h2.9c.3,0,.5-.2.5-.5s-.2-.5-.5-.5h-2.9c-.3,0-.5.2-.5.5s.2.5.5.5Z"/>
  <path class="cls-1" d="M5.7,8.6h-2.9c-.3,0-.5.2-.5.5v2.9c0,.3.2.5.5.5h2.9c.3,0,.5-.2.5-.5v-2.9c0-.3-.2-.5-.5-.5ZM5.2,11.5h-1.9v-1.9h1.9v1.9h0Z"/>
  <path class="cls-1" d="M7.6,10.1h4.4c.3,0,.5-.2.5-.5s-.2-.5-.5-.5h-4.4c-.3,0-.5.2-.5.5s.2.5.5.5h0Z"/>
  <path class="cls-1" d="M7.6,12h2.9c.3,0,.5-.2.5-.5s-.2-.5-.5-.5h-2.9c-.3,0-.5.2-.5.5s.2.5.5.5Z"/>
  <path class="cls-1" d="M5.7,14h-2.9c-.3,0-.5.2-.5.5v2.9c0,.3.2.5.5.5h2.9c.3,0,.5-.2.5-.5v-2.9c0-.3-.2-.5-.5-.5ZM5.2,16.9h-1.9v-1.9h1.9v1.9h0Z"/>
  <path class="cls-1" d="M7.6,15.4h4.4c.3,0,.5-.2.5-.5s-.2-.5-.5-.5h-4.4c-.3,0-.5.2-.5.5s.2.5.5.5h0Z"/>
  <path class="cls-1" d="M11,16.9c0-.3-.2-.5-.5-.5h-2.9c-.3,0-.5.2-.5.5s.2.5.5.5h2.9c.3,0,.5-.2.5-.5Z"/>
</svg>