<?xml version="1.0" encoding="UTF-8"?>
<svg id="Capa_1" data-name="Capa 1" xmlns="http://www.w3.org/2000/svg" version="1.1" viewBox="0 0 24 24">
  <defs>
    <style>
      .cls-1 {
        fill: #0075be;
        stroke-width: 0px;
      }
    </style>
  </defs>
  <path class="cls-1" d="M12.5,11.9c.5-.5.9-1.1,1.1-1.8s.4-1.4.4-2.1-.1-1.4-.4-2.1-.6-1.3-1.1-1.8c1,.1,1.8.6,2.5,1.3s1,1.6,1,2.6-.3,1.9-1,2.6-1.5,1.2-2.5,1.3ZM18,20v-3c0-.6-.1-1.2-.4-1.7s-.6-1-1.1-1.4c.9.3,1.6.7,2.4,1.2s1.1,1.1,1.1,2v3h-2ZM20,13v-2h-2v-2h2v-2h2v2h2v2h-2v2h-2ZM8,12c-1.1,0-2-.4-2.8-1.2-.8-.8-1.2-1.7-1.2-2.8s.4-2,1.2-2.8,1.7-1.2,2.8-1.2,2,.4,2.8,1.2,1.2,1.7,1.2,2.8-.4,2-1.2,2.8c-.8.8-1.7,1.2-2.8,1.2ZM0,20v-2.8c0-.6.1-1.1.4-1.6.3-.5.7-.8,1.2-1.1,1-.5,2.1-.9,3.2-1.2s2.2-.4,3.3-.4,2.2.1,3.3.4,2.1.6,3.2,1.2c.5.3.9.6,1.2,1.1s.4,1,.4,1.6v2.8H0ZM8,10c.6,0,1-.2,1.4-.6s.6-.9.6-1.4-.2-1-.6-1.4-.9-.6-1.4-.6-1,.2-1.4.6c-.4.4-.6.9-.6,1.4s.2,1,.6,1.4c.4.4.9.6,1.4.6ZM2,18h12v-.8c0-.2,0-.4-.1-.5s-.2-.3-.4-.4c-.9-.5-1.8-.8-2.7-1s-1.8-.3-2.8-.3-1.9.1-2.8.3-1.8.6-2.7,1c-.2,0-.3.2-.4.4s-.1.3-.1.5v.8Z"/>
</svg>