<?xml version="1.0" encoding="UTF-8"?>
<svg id="Capa_1" data-name="Capa 1" xmlns="http://www.w3.org/2000/svg" version="1.1" viewBox="0 0 24 24">
  <defs>
    <style>
      .cls-1 {
        fill: #0075be;
        stroke-width: 0px;
      }
    </style>
  </defs>
  <path class="cls-1" d="M5.9,12l-.3-1.5c-.2,0-.4-.2-.6-.3s-.4-.2-.5-.3l-1.5.5-1-1.7,1.2-1c0-.2,0-.4,0-.7s0-.4,0-.7l-1.2-1,1-1.7,1.5.5c.2-.1.4-.2.5-.3s.4-.2.6-.3l.3-1.5h2l.3,1.5c.2,0,.4.2.6.3s.4.2.5.3l1.5-.5,1,1.7-1.2,1c0,.2,0,.4,0,.7s0,.4,0,.7l1.2,1-1,1.7-1.5-.5c-.2.1-.4.2-.5.3s-.4.2-.6.3l-.3,1.5h-2ZM6.9,9c.6,0,1-.2,1.4-.6s.6-.9.6-1.4-.2-1-.6-1.4-.9-.6-1.4-.6-1,.2-1.4.6-.6.9-.6,1.4.2,1,.6,1.4.9.6,1.4.6ZM14.8,23l-.5-2.1c-.3-.1-.5-.2-.8-.4s-.5-.3-.7-.5l-2,.7-1.4-2.4,1.6-1.4c0-.3,0-.6,0-.9s0-.6,0-.9l-1.6-1.4,1.4-2.4,2,.7c.2-.2.5-.3.7-.5s.5-.3.8-.4l.5-2.1h2.8l.5,2.1c.3.1.5.2.8.4s.5.3.7.5l2-.7,1.4,2.4-1.6,1.4c0,.3,0,.6,0,.9s0,.6,0,.9l1.6,1.4-1.4,2.4-2-.7c-.2.2-.5.3-.7.5s-.5.3-.8.4l-.5,2.1h-2.8ZM16.2,19c.8,0,1.5-.3,2.1-.9.6-.6.9-1.3.9-2.1s-.3-1.5-.9-2.1-1.3-.9-2.1-.9-1.5.3-2.1.9-.9,1.3-.9,2.1.3,1.5.9,2.1c.6.6,1.3.9,2.1.9Z"/>
</svg>