<?xml version="1.0" encoding="UTF-8"?>
<svg id="Capa_1" data-name="Capa 1" xmlns="http://www.w3.org/2000/svg" version="1.1" viewBox="0 0 24 24">
  <defs>
    <style>
      .cls-1 {
        fill: #0075be;
        stroke-width: 0px;
      }
    </style>
  </defs>
  <path class="cls-1" d="M7,20v-11c0-.6.2-1,.6-1.4s.9-.6,1.4-.6h11c.6,0,1,.2,1.4.6s.6.9.6,1.4v8l-5,5h-8c-.6,0-1-.2-1.4-.6s-.6-.9-.6-1.4ZM2,6.2c-.1-.6,0-1,.3-1.5s.8-.7,1.3-.8l10.9-1.9c.6-.1,1,0,1.5.3s.7.8.8,1.3l.3,1.4h-2.1l-.2-1-10.8,1.9,1,5.7v7c-.3-.2-.5-.4-.7-.6s-.3-.5-.4-.9l-1.9-10.9ZM9,9v11h7v-4h4v-7h-11Z"/>
</svg>