<?xml version="1.0" encoding="UTF-8"?>
<svg id="Capa_1" data-name="Capa 1" xmlns="http://www.w3.org/2000/svg" version="1.1" viewBox="0 0 24 24">
  <defs>
    <style>
      .cls-1 {
        fill: #0075be;
        stroke-width: 0px;
      }
    </style>
  </defs>
  <path class="cls-1" d="M5.7,10l2,.8c.2-.5.5-.9.7-1.4s.5-.9.8-1.3l-1.4-.3-2.1,2.1ZM9.2,12.1l2.9,2.8c.7-.3,1.5-.7,2.3-1.2s1.6-1.2,2.3-1.9c1.2-1.2,2.1-2.5,2.7-3.9s.9-2.7.9-3.9c-1.2,0-2.5.2-4,.9s-2.7,1.6-3.9,2.7-1.3,1.5-1.9,2.3-1,1.6-1.2,2.3ZM13.7,10.5c-.4-.4-.6-.9-.6-1.4s.2-1,.6-1.4.9-.6,1.4-.6,1,.2,1.4.6.6.9.6,1.4-.2,1-.6,1.4-.9.6-1.4.6-1-.2-1.4-.6ZM14.1,18.5l2.1-2.1-.3-1.4c-.4.3-.9.6-1.3.8s-.9.5-1.4.7l.8,2ZM22,2.2c.3,2,.1,4-.6,5.9s-1.9,3.7-3.7,5.5l.5,2.5c0,.3,0,.7,0,1s-.3.6-.5.8l-4.2,4.2-2.1-4.9-4.3-4.3-4.9-2.1,4.2-4.2c.2-.2.5-.4.8-.5s.7-.1,1,0l2.5.5c1.7-1.7,3.6-3,5.5-3.7s3.9-.9,5.9-.6ZM3.9,16c.6-.6,1.3-.9,2.1-.9.8,0,1.6.3,2.1.9s.9,1.3.9,2.1c0,.8-.3,1.6-.9,2.1-.4.4-1.1.8-2.1,1.1s-2.3.6-4,.8c.2-1.7.5-3.1.8-4s.7-1.7,1.1-2.1ZM5.4,17.4c-.2.2-.3.5-.5.9s-.3.9-.4,1.3c.5,0,.9-.2,1.3-.3s.7-.3.9-.5c.2-.2.3-.4.3-.7s0-.5-.3-.7-.4-.3-.7-.3-.5.1-.7.3Z"/>
</svg>