<?xml version="1.0" encoding="UTF-8"?>
<svg id="Capa_1" data-name="Capa 1" xmlns="http://www.w3.org/2000/svg" version="1.1" viewBox="0 0 24 24">
  <defs>
    <style>
      .cls-1 {
        fill: #0075be;
        stroke-width: 0px;
      }
    </style>
  </defs>
  <g id="g648">
    <g id="g650">
      <g id="g652">
        <g id="g658">
          <g id="path660">
            <path class="cls-1" d="M12,23.4c-.1,0-.2,0-.3,0-2.8-1.1-5.1-3-6.8-5.5-1.7-2.5-2.5-5.4-2.5-8.4v-4.4c0-.4.2-.7.6-.8L11.7.6c.2,0,.5,0,.7,0l8.8,3.6c.3.1.6.5.6.8v4.4c0,3-.9,5.9-2.5,8.4-1.7,2.5-4,4.4-6.8,5.5-.1,0-.2,0-.3,0ZM4.1,5.7v3.8c0,2.6.8,5.2,2.2,7.4,1.4,2.1,3.3,3.7,5.6,4.7,2.3-1,4.2-2.6,5.6-4.7,1.5-2.2,2.2-4.7,2.2-7.4v-3.8l-7.9-3.3-7.9,3.3Z"/>
          </g>
        </g>
        <g id="g662">
          <g id="path664">
            <path class="cls-1" d="M11,14.7c-.2,0-.5,0-.6-.3l-2.5-2.5c-.3-.3-.3-.9,0-1.3.3-.3.9-.3,1.3,0l1.9,1.9,3.8-3.8c.3-.3.9-.3,1.3,0,.3.3.3.9,0,1.3l-4.5,4.5c-.2.2-.4.3-.6.3Z"/>
          </g>
        </g>
      </g>
    </g>
  </g>
</svg>