<?xml version="1.0" encoding="UTF-8"?>
<svg id="Capa_1" data-name="Capa 1" xmlns="http://www.w3.org/2000/svg" version="1.1" viewBox="0 0 24 24">
  <defs>
    <style>
      .cls-1 {
        fill: #0075be;
        stroke-width: 0px;
      }
    </style>
  </defs>
  <g id="g1905">
    <g id="g1907">
      <g id="g1909">
        <g id="g1915">
          <g id="path1917">
            <g>
              <path class="cls-1" d="M18.9,23.7c-.3,0-.5,0-.8-.2,0,0,0,0,0,0-1.8-.9-3.1-2.2-3.5-3.6,0-.3-.1-.5-.1-.8,0,0,0,0,0,0v-3.2c0-.1,0-.4.1-.7.2-.4.5-.6.9-.7,0,0,0,0,0,0,.9,0,1.2-.2,1.6-.5.4-.2.8-.5,1.6-.5s1.2.2,1.6.5c.4.2.8.5,1.6.5,0,0,0,0,0,0,.4,0,.8.3.9.7.1.3.1.6.1.7v3.3s0,0,0,0c0,.3,0,.5-.1.8-.4,1.4-1.6,2.8-3.5,3.6,0,0,0,0,0,0-.3.2-.6.2-.8.2ZM18.4,22.8c.4.2.5.2,1.1,0,1.6-.8,2.8-2,3.1-3.2,0-.2,0-.4,0-.6v-3.2c0-.5-.1-.7-.4-.7-1,0-1.5-.3-2-.6-.4-.2-.7-.4-1.3-.4s-.9.2-1.3.4c-.4.3-.9.5-2,.6-.3,0-.4.2-.4.7,0,0,0,0,0,0v.5s0,2.7,0,2.7c0,.2,0,.4,0,.6.3,1.2,1.4,2.4,3.1,3.2Z"/>
              <path class="cls-1" d="M18.9,23.8c-.3,0-.5,0-.9-.2-1.9-.9-3.2-2.3-3.6-3.8,0-.3-.1-.6-.1-.8v-3.3c0-.2,0-.5.1-.8.2-.4.6-.7,1.1-.8h0c.8,0,1.2-.2,1.6-.5.4-.2.9-.5,1.7-.5s1.3.3,1.7.5c.4.2.7.4,1.6.4h0c.5,0,.9.3,1.1.8.1.3.1.7.1.8v3.3c0,.3,0,.6-.1.8-.4,1.5-1.7,2.9-3.5,3.8h0c-.3.2-.6.2-.9.2ZM18.9,13.6c-.8,0-1.2.2-1.6.5-.4.2-.8.5-1.7.5-.4,0-.7.2-.8.6-.1.3-.1.5-.1.7v3.2c0,.3,0,.5,0,.8.3,1.4,1.6,2.7,3.4,3.5.6.3.9.3,1.5,0h0c1.8-.9,3-2.2,3.3-3.5,0-.3,0-.5,0-.8v-3.3c0-.1,0-.4-.1-.7-.1-.3-.4-.5-.8-.6-.9,0-1.3-.3-1.7-.5-.4-.2-.8-.5-1.6-.5ZM18.9,23.2c-.2,0-.3,0-.6-.2h0c-1.7-.8-2.8-2-3.2-3.3,0-.2,0-.4,0-.7v-3.2c0-.4,0-.8.6-.9,1,0,1.5-.3,1.9-.5.4-.2.7-.4,1.4-.4s1,.2,1.4.4c.4.2.9.5,1.9.5.5,0,.6.5.6.9v3.2c0,.2,0,.4,0,.7-.3,1.3-1.5,2.5-3.2,3.3-.3.1-.4.2-.6.2ZM18.4,22.7c.4.2.5.2.9,0,1.6-.8,2.7-1.9,3-3.1,0-.2,0-.4,0-.6v-3.2c0-.5-.1-.5-.3-.5-1.1,0-1.6-.3-2-.6-.4-.2-.6-.4-1.2-.4s-.9.2-1.2.4c-.4.3-1,.6-2,.6-.2,0-.3,0-.3.5v3.2c0,.2,0,.4,0,.6.3,1.2,1.4,2.3,3,3.1Z"/>
            </g>
          </g>
        </g>
        <g id="g1919">
          <g id="path1921">
            <g>
              <path class="cls-1" d="M18.4,19.9c0,0-.2,0-.2,0l-.8-.6c-.1-.1-.2-.3,0-.5.1-.1.3-.2.5,0l.5.4,1.5-1.8c.1-.1.3-.2.5,0,.1.1.2.3,0,.5l-1.7,2.1c0,0-.2.1-.3.1Z"/>
              <path class="cls-1" d="M18.4,20.1c-.1,0-.2,0-.3-.1l-.8-.6c-.2-.2-.3-.5,0-.7,0-.1.2-.2.3-.2.1,0,.3,0,.4.1l.4.3,1.4-1.7c.2-.2.5-.2.7,0,.2.2.2.5,0,.7l-1.7,2.1c0,.1-.2.2-.4.2ZM17.6,18.8s0,0,0,0c0,0,0,0-.1,0,0,0,0,0,0,.1,0,0,0,0,0,.1l.8.6c0,0,.2,0,.3,0l1.7-2.1c0,0,0-.2,0-.3,0,0-.2,0-.3,0l-1.6,1.9-.7-.5s0,0-.1,0Z"/>
            </g>
          </g>
        </g>
        <g id="g1923">
          <g id="path1925">
            <g>
              <path class="cls-1" d="M6,8.8c-.4,0-.8-.2-1.1-.5-.3-.3-.5-.6-.5-1v-.4c0-.4.4-.8.8-.8h.6c.2,0,.3.2.3.3s-.2.3-.3.3h-.6c0,0,0,0,0,0v.4c0,.2,0,.3.3.5.2.2.4.3.6.3.2,0,.3.2.3.3,0,.2-.2.3-.3.3,0,0,0,0,0,0Z"/>
              <path class="cls-1" d="M6,8.9h0c-.4,0-.8-.2-1.2-.5-.3-.3-.5-.7-.5-1.1v-.4c0-.5.4-1,1-1h.6c.3,0,.5.2.5.5s-.2.5-.5.5h-.6v.4c0,.1,0,.3.2.4.1.1.3.2.5.2h0c.3,0,.5.2.5.5,0,.3-.2.5-.5.5h0ZM5.3,6.3c-.3,0-.6.3-.6.6v.4c0,.3.1.6.4.9.3.3.6.4.9.4h0c0,0,.2,0,.2-.2,0,0,0-.2-.2-.2,0,0,0,0,0,0-.2,0-.5-.1-.7-.3-.2-.2-.3-.4-.3-.6v-.4c0-.1.1-.3.3-.3h.6c0,0,.2,0,.2-.2s0-.2-.2-.2h-.6Z"/>
            </g>
          </g>
        </g>
        <g id="g1927">
          <g id="path1929">
            <g>
              <path class="cls-1" d="M14.6,8.8s0,0,0,0c-.2,0-.3-.2-.3-.3,0-.2.2-.3.3-.3,0,0,0,0,0,0,.2,0,.4-.1.6-.3.2-.2.3-.3.3-.5v-.4c0,0,0,0,0,0h-.6c-.2,0-.3-.2-.3-.3s.2-.3.3-.3h.6c.4,0,.8.4.8.8v.4c0,.3-.2.7-.5,1-.3.3-.7.5-1.1.5Z"/>
              <path class="cls-1" d="M14.6,8.9h0c-.1,0-.3,0-.4-.2,0,0-.1-.2-.1-.4,0-.3.2-.5.5-.5h0c.1,0,.3,0,.5-.2.1-.1.2-.3.2-.4v-.4h-.6c-.3,0-.5-.2-.5-.5s.2-.5.5-.5h.6c.5,0,1,.4,1,1v.4c0,.4-.2.8-.5,1.1-.3.3-.8.5-1.2.5ZM14.6,8.3c-.1,0-.2,0-.2.2,0,0,0,0,0,.1,0,0,0,0,.1,0v.2s0-.2,0-.2c.3,0,.7-.2.9-.4.3-.3.4-.6.4-.9v-.4c0-.3-.3-.6-.6-.6h-.6c0,0-.2,0-.2.2s0,.2.2.2h.6c.1,0,.3.1.3.3v.4c0,.2-.1.4-.3.6-.2.2-.5.3-.7.3h0Z"/>
            </g>
          </g>
        </g>
        <g id="g1931">
          <g id="path1933">
            <g>
              <path class="cls-1" d="M10.3,14.1c-.9,0-1.7-.2-2.4-.6-.7-.4-1.1-1-1.3-1.6,0-.2,0-.4.3-.4.2,0,.4,0,.4.3,0,.4.4.8.9,1.1.6.3,1.3.5,2,.5,1.5,0,2.8-.7,3-1.6,0-.2.2-.3.4-.3.2,0,.3.2.3.4-.1.6-.6,1.2-1.2,1.6-.7.4-1.5.6-2.4.6Z"/>
              <path class="cls-1" d="M10.3,14.2c-.9,0-1.8-.2-2.5-.6-.7-.4-1.2-1-1.3-1.7,0-.3.1-.5.4-.6.1,0,.3,0,.4,0,.1,0,.2.2.2.3,0,.4.4.7.8,1,.5.3,1.2.5,1.9.5,1.4,0,2.6-.7,2.8-1.5,0-.3.3-.5.6-.4.3,0,.5.3.4.6-.1.7-.6,1.3-1.3,1.7-.7.4-1.6.6-2.5.6ZM7,11.6s0,0,0,0c0,0-.2.1-.1.2.1.6.5,1.1,1.2,1.5.6.4,1.4.6,2.3.6s1.7-.2,2.3-.6c.7-.4,1.1-.9,1.2-1.5,0,0,0-.2-.1-.2,0,0,0,0-.1,0,0,0,0,0,0,.1-.2,1-1.5,1.8-3.1,1.8s-1.5-.2-2.1-.5c-.6-.3-.9-.8-1-1.2,0,0,0-.1-.2-.1Z"/>
            </g>
          </g>
        </g>
        <g id="g1935">
          <g id="path1937">
            <g>
              <path class="cls-1" d="M10.3,12.6c-.4,0-.8,0-1.2-.2-1.9-.7-3.5-2.8-3.5-4.5v-1.4c0-.2.1-.3.3-.3,0,0,0,0,0,0,.2,0,.3.2.3.3v1.4s0,0,0,0c0,1.5,1.4,3.3,3.1,3.9.7.3,1.2.3,1.9,0,1.6-.6,3-2.4,3-3.9s0,0,0,0v-1.4c0-.2.2-.3.4-.3s0,0,0,0c.2,0,.3.2.3.3v1.4c0,1.8-1.6,3.8-3.5,4.5-.4.2-.8.2-1.2.2Z"/>
              <path class="cls-1" d="M10.3,12.8c-.4,0-.8,0-1.3-.3-2-.7-3.6-2.9-3.6-4.7v-1.4c0-.3.2-.5.5-.5.3,0,.5.2.5.5v1.4c0,1.4,1.4,3.2,3,3.7.7.3,1.1.3,1.8,0,1.6-.6,2.9-2.3,2.9-3.7v-1.4c0-.3.2-.5.5-.5.3,0,.5.2.5.5v1.4c0,1.8-1.7,4-3.6,4.7-.5.2-.9.3-1.3.3h0ZM5.9,6.3c0,0,0,0-.1,0,0,0,0,0,0,.1v1.4c0,1.7,1.6,3.7,3.4,4.4.4.2.8.2,1.1.2h0c.4,0,.7,0,1.2-.2,1.8-.7,3.4-2.7,3.4-4.4v-1.4c0,0,0-.2-.2-.2-.1,0-.2,0-.2.2v1.4c0,1.5-1.5,3.4-3.2,4.1-.7.3-1.3.3-2.1,0-1.7-.6-3.2-2.5-3.2-4.1v-1.4c0,0,0-.2-.2-.2Z"/>
            </g>
          </g>
        </g>
        <g id="g1939">
          <g id="path1941">
            <g>
              <path class="cls-1" d="M9.4,6.8h-3.6c-.5,0-.8-.4-.8-.8v-.5c0-.5.4-.8.8-.8h8.9c.5,0,.8.4.8.8v.5c0,.5-.4.8-.8.8h-3.7c-.2,0-.3-.2-.3-.3s.2-.3.3-.3h3.7c0,0,.2,0,.2-.2v-.5c0,0,0-.2-.2-.2H5.8c0,0-.2,0-.2.2v.5c0,0,0,.2.2.2h3.6c.2,0,.3.2.3.3,0,.2-.2.3-.3.3Z"/>
              <path class="cls-1" d="M9.4,7h-3.6c-.6,0-1-.5-1-1v-.5c0-.6.5-1,1-1h8.9c.6,0,1,.5,1,1v.5c0,.6-.5,1-1,1h-3.7c-.3,0-.5-.2-.5-.5s.2-.5.5-.5h3.7v-.5s-8.9,0-8.9,0v.5s3.6,0,3.6,0c.3,0,.5.2.5.5,0,.3-.2.5-.5.5ZM5.8,4.8c-.4,0-.7.3-.7.7v.5c0,.4.3.7.7.7h3.6c0,0,.2,0,.2-.2s0-.2-.2-.2h-3.6c-.2,0-.3-.1-.3-.3v-.5c0-.2.1-.3.3-.3h8.9c.2,0,.3.1.3.3v.5c0,.2-.1.3-.3.3h-3.7c0,0-.2,0-.2.2s0,.2.2.2h3.7c.4,0,.7-.3.7-.7v-.5c0-.4-.3-.7-.7-.7H5.8Z"/>
            </g>
          </g>
        </g>
        <g id="g1943">
          <g id="path1945">
            <g>
              <path class="cls-1" d="M11.2,3.8h-1.8c-.6,0-1.1-.5-1.1-1.1v-1.3c0-.6.5-1.1,1.1-1.1h1.8c.6,0,1.1.5,1.1,1.1v1.3c0,.6-.5,1.1-1.1,1.1ZM9.4,1c-.2,0-.4.2-.4.4v1.3c0,.2.2.4.4.4h1.8c.2,0,.4-.2.4-.4v-1.3c0-.2-.2-.4-.4-.4h-1.8Z"/>
              <path class="cls-1" d="M11.2,3.9h-1.8c-.7,0-1.2-.6-1.2-1.2v-1.3c0-.7.6-1.2,1.2-1.2h1.8c.7,0,1.2.6,1.2,1.2v1.3c0,.7-.6,1.2-1.2,1.2ZM9.4.5c-.5,0-.9.4-.9.9v1.3c0,.5.4.9.9.9h1.8c.5,0,.9-.4.9-.9v-1.3c0-.5-.4-.9-.9-.9h-1.8ZM11.2,3.2h-1.8c-.3,0-.6-.2-.6-.6v-1.3c0-.3.3-.6.6-.6h1.8c.3,0,.6.2.6.6v1.3c0,.3-.2.6-.6.6ZM9.4,1.2c-.1,0-.2.1-.2.2v1.3c0,.1.1.2.2.2h1.8c.1,0,.2-.1.2-.2v-1.3c0-.1-.1-.2-.2-.2h-1.8Z"/>
            </g>
          </g>
        </g>
        <g id="g1947">
          <g id="path1949">
            <g>
              <path class="cls-1" d="M5.8,5.3s0,0,0,0c-.2,0-.3-.2-.3-.4,0-.9.4-1.7,1-2.4.5-.7,1.2-1.2,2.1-1.5.2,0,.4,0,.4.2,0,.2,0,.4-.2.4-.7.3-1.3.7-1.8,1.3-.5.6-.8,1.3-.8,2.1,0,.2-.2.3-.3.3ZM14.7,5.3c-.2,0-.3-.1-.3-.3,0-.8-.4-1.5-.8-2.1-.5-.6-1.1-1.1-1.8-1.3-.2,0-.3-.3-.2-.4,0-.2.3-.3.4-.2.8.3,1.5.9,2,1.5.5.7.9,1.5,1,2.4,0,.2-.1.4-.3.4,0,0,0,0,0,0Z"/>
              <path class="cls-1" d="M14.7,5.5c-.3,0-.5-.2-.5-.5,0-.7-.3-1.4-.8-2-.4-.6-1-1-1.7-1.3-.3-.1-.4-.4-.3-.7,0-.1.1-.2.3-.3.1,0,.3,0,.4,0,.8.3,1.6.9,2.1,1.6.6.7.9,1.6,1,2.5,0,.3-.2.5-.5.6h0ZM11.9,1.1s0,0,0,0c0,0,0,0,0,0,0,0,0,.2.1.2.7.3,1.3.8,1.8,1.4.5.6.8,1.4.9,2.2,0,0,0,.2.2.2v.2-.2c.1,0,.2,0,.2-.2,0-.9-.4-1.7-.9-2.3-.5-.7-1.2-1.2-2-1.5,0,0,0,0,0,0ZM5.8,5.5h0c-.1,0-.3,0-.3-.2,0-.1-.1-.2-.1-.4,0-.9.4-1.8,1-2.5.6-.7,1.3-1.3,2.1-1.6.3-.1.6,0,.7.3.1.3,0,.6-.3.7-.7.3-1.2.7-1.7,1.3-.4.6-.7,1.3-.8,2,0,.3-.2.5-.5.5ZM8.6,1.1s0,0,0,0c-.8.3-1.5.8-2,1.5-.5.7-.8,1.5-.9,2.3,0,0,0,.2.2.2h0c0,0,.2,0,.2-.2,0-.8.4-1.5.9-2.2.5-.6,1.1-1.1,1.8-1.4,0,0,.1-.1.1-.2,0,0,0-.1-.2-.1Z"/>
            </g>
          </g>
        </g>
        <g id="g1951">
          <g id="path1953">
            <g>
              <path class="cls-1" d="M13.5,20.8c-.2,0-.3-.2-.3-.3v-2.5s0,0,0,0h-5.8s0,0,0,0v2.5c0,.2-.2.3-.3.3s-.3-.2-.3-.3v-2.5c0-.4.3-.7.7-.7h5.8c.4,0,.7.3.7.7v2.5c0,.2-.2.3-.3.3Z"/>
              <path class="cls-1" d="M13.5,21c-.3,0-.5-.2-.5-.5v-2.4h-5.5v2.4c0,.3-.2.5-.5.5s-.5-.2-.5-.5v-2.5c0-.5.4-.9.9-.9h5.8c.5,0,.9.4.9.9v2.5c0,.3-.2.5-.5.5ZM7.4,17.7h5.8c.1,0,.2,0,.2.2v2.5c0,0,0,.2.2.2s.2,0,.2-.2v-2.5c0-.3-.3-.6-.6-.6h-5.8c-.3,0-.6.3-.6.6v2.5c0,0,0,.2.2.2s.2,0,.2-.2v-2.5c0-.1,0-.2.2-.2Z"/>
            </g>
          </g>
        </g>
        <g id="g1955">
          <g id="path1957">
            <g>
              <path class="cls-1" d="M13.5,19.1h-6.6c-.2,0-.3-.2-.3-.3,0-.2.2-.3.3-.3h6.6c.2,0,.3.2.3.3,0,.2-.2.3-.3.3Z"/>
              <path class="cls-1" d="M13.5,19.3h-6.6c-.3,0-.5-.2-.5-.5,0-.3.2-.5.5-.5h6.6c.3,0,.5.2.5.5s-.2.5-.5.5ZM7,18.6c0,0-.2,0-.2.2s0,.2.2.2h6.6c0,0,.2,0,.2-.2s0-.2-.2-.2h-6.6Z"/>
            </g>
          </g>
        </g>
        <g id="g1959">
          <g id="path1961">
            <g>
              <path class="cls-1" d="M1.7,20.8c-.4,0-.7,0-.8-.3-.2-.3,0-.7.1-1.4l1.6-5.4s0,0,0,0c.4-1.2,1.2-1.4,2.1-1.7.1,0,.2,0,.4-.1l3-.9c.2,0,.4,0,.4.2,0,.2,0,.4-.2.4l-3,.9c-.1,0-.3,0-.4.1-.8.2-1.3.4-1.6,1.2l-1.6,5.4c0,.2-.2.5-.2.7,0,0,.3,0,.4,0,0,0,.1,0,.2,0h13.2c.2,0,.3.2.3.3s-.2.3-.3.3H2.1c0,0-.2,0-.2,0,0,0-.1,0-.2,0ZM17.7,14.4c-.1,0-.3,0-.3-.2h0c-.3-.9-.9-1.1-1.8-1.4-.1,0-.3,0-.4-.1l-2.8-.8c-.2,0-.3-.2-.2-.4,0-.2.2-.3.4-.2l2.8.8c.1,0,.3,0,.4.1.9.3,1.9.5,2.3,1.7h0s0,0,0,0c0,.2,0,.4-.2.4,0,0,0,0-.1,0Z"/>
              <path class="cls-1" d="M1.7,21c-.4,0-.7,0-1-.3-.3-.4-.1-.8,0-1.5l1.6-5.4c.4-1.3,1.3-1.5,2.2-1.8h0c.1,0,.2,0,.3-.1l3-.9c.1,0,.3,0,.4,0,.1,0,.2.2.2.3,0,.3,0,.6-.3.6l-3,.9c-.1,0-.3,0-.4.1-.9.2-1.2.4-1.5,1.1l-1.6,5.4c0,.1-.1.3-.1.5,0,0,.1,0,.2,0h.2s13.2,0,13.2,0c.3,0,.5.2.5.5s-.2.5-.5.5H1.7ZM8.1,11.3s0,0,0,0l-3,.9c-.1,0-.2,0-.3,0h0c-.9.3-1.6.5-1.9,1.6l-1.6,5.4c-.2.6-.3,1-.1,1.2.1.2.3.2.7.2h13.6c0,0,.2,0,.2-.2s0-.2-.2-.2H1.8c-.2,0-.3,0-.4,0h-.2s0-.2,0-.2c0-.2.1-.5.2-.7l1.6-5.4c.3-.9.9-1.1,1.7-1.3.1,0,.3,0,.4-.1l3-.9c0,0,.1-.1.1-.2,0,0,0,0,0-.1,0,0,0,0,0,0ZM17.7,14.5c-.2,0-.4-.1-.5-.4h0c-.2-.8-.8-1-1.7-1.3-.1,0-.3,0-.4-.1l-2.8-.8c-.3,0-.4-.4-.3-.6,0-.1.1-.2.2-.3.1,0,.3,0,.4,0l2.8.8c.1,0,.3,0,.4.1.9.3,2,.6,2.4,1.8h0s0,0,0,0h0c0,.2,0,.3,0,.5,0,.1-.2.2-.3.2,0,0,0,0-.2,0ZM12.5,11.3s0,0,0,0c0,0,0,0,0,.1,0,0,0,.2.1.2l2.8.8c.1,0,.3,0,.4.1.9.3,1.6.5,1.9,1.4h0c0,.2.1.2.2.2,0,0,.1-.1.1-.2h0c-.4-1.2-1.2-1.4-2.2-1.7-.1,0-.3,0-.4-.1l-2.8-.8s0,0,0,0Z"/>
            </g>
          </g>
        </g>
        <g id="g1963">
          <g id="path1965">
            <g>
              <path class="cls-1" d="M18.9,22.2c-.2,0-.4,0-.6-.2,0,0,0,0,0,0-1.3-.6-2.2-1.6-2.5-2.6,0-.2,0-.4,0-.6,0,0,0,0,0,0v-2.3c0-.9.5-1,.8-1.1,0,0,0,0,0,0,.6,0,.8-.2,1.1-.3.3-.2.6-.4,1.2-.4s.9.2,1.2.4c.3.2.5.3,1.1.3,0,0,0,0,0,0,.3,0,.8.2.8,1.1v.4s0,1.9,0,1.9c0,0,0,0,0,0,0,.2,0,.4,0,.6-.3,1-1.2,2-2.5,2.6-.3.1-.4.2-.6.2ZM18.6,21.4c.3.1.3.1.6,0,1.1-.5,1.9-1.3,2.1-2.1,0-.1,0-.3,0-.4v-2.3c0-.3,0-.4-.2-.4-.7,0-1.1-.2-1.4-.4-.3-.1-.4-.3-.8-.3s-.6.1-.8.3c-.3.2-.7.4-1.4.4-.1,0-.2,0-.2.4v.4s0,1.9,0,1.9c0,.1,0,.3,0,.4.2.8,1,1.6,2.1,2.1Z"/>
              <path class="cls-1" d="M18.9,22.4c-.2,0-.4,0-.7-.2-1.4-.6-2.3-1.6-2.6-2.7,0-.2,0-.4,0-.6v-2.3c0-1,.7-1.2,1-1.2h0c.5,0,.7-.1,1-.3.3-.2.6-.4,1.3-.4s1,.2,1.3.4c.3.2.5.3,1,.3h0c.3,0,1,.2,1,1.2v2.3c0,.2,0,.4,0,.6-.3,1.1-1.2,2.1-2.5,2.7-.3.1-.5.2-.7.2ZM18.9,15c-.6,0-.8.2-1.1.3-.3.2-.6.3-1.2.3-.3,0-.7.2-.7.9v2.3c0,.2,0,.4,0,.5.2,1,1.1,1.9,2.4,2.5.4.2.6.2,1.1,0,1.3-.6,2.1-1.5,2.4-2.5,0-.2,0-.4,0-.5v-2.3c0-.7-.4-.9-.7-.9-.6,0-.9-.2-1.2-.3-.3-.2-.6-.3-1.1-.3ZM18.9,21.7c-.1,0-.2,0-.4-.1h0c-1.2-.6-2-1.4-2.2-2.3,0-.1,0-.3,0-.5v-2.3c0-.3,0-.5.3-.6.7,0,1.1-.2,1.3-.4.3-.1.5-.3.9-.3s.7.1.9.3c.3.2.6.4,1.3.4.3,0,.4.3.4.6v2.3c0,.2,0,.3,0,.5-.2.9-1,1.7-2.2,2.3-.2,0-.3.1-.4.1ZM18.6,21.3c.3.1.3.1.5,0,1.1-.5,1.8-1.3,2-2,0-.1,0-.3,0-.4v-2.2c0-.2,0-.2,0-.2-.8,0-1.2-.3-1.5-.4-.2-.1-.4-.2-.8-.2s-.5,0-.8.2c-.3.2-.7.4-1.5.4,0,0,0,0,0,.2v2.3c0,.1,0,.2,0,.4.2.8.9,1.5,2,2Z"/>
            </g>
          </g>
        </g>
        <g id="g1967">
          <g id="path1969">
            <g>
              <path class="cls-1" d="M5.1,20.8c-.2,0-.3-.2-.3-.3v-8.1c0-.2.2-.3.3-.3s.3.2.3.3v8.1c0,.2-.2.3-.3.3ZM9.4,16.3h-2.1c-.4,0-.7-.3-.7-.7v-3.7c0-.2.2-.3.3-.3s.3.2.3.3v3.7s0,0,0,0h2.1c.2,0,.3.2.3.3,0,.2-.2.3-.3.3ZM13.2,16.3h-2.1c-.2,0-.3-.2-.3-.3s.2-.3.3-.3h2.1s0,0,0,0v-3.7c0-.2.2-.3.3-.3s.3.2.3.3v3.7c0,.4-.3.7-.7.7ZM15.5,15.1c-.2,0-.3-.2-.3-.3v-2.4c0-.2.2-.3.3-.3s.3.2.3.3v2.4c0,.2-.2.3-.3.3Z"/>
              <path class="cls-1" d="M5.1,21c-.3,0-.5-.2-.5-.5v-8.1c0-.3.2-.5.5-.5s.5.2.5.5v8.1c0,.3-.2.5-.5.5ZM5.1,12.2c0,0-.2,0-.2.2v8.1c0,0,0,.2.2.2s.2,0,.2-.2v-8.1c0,0,0-.2-.2-.2ZM9.4,16.4h-2.1c-.5,0-.9-.4-.9-.9v-3.7c0-.3.2-.5.5-.5s.5.2.5.5v3.6h2c.3,0,.5.2.5.5s-.2.5-.5.5ZM7,11.6c0,0-.2,0-.2.2v3.7c0,.3.3.6.6.6h2.1v.2-.2c0,0,.2,0,.2-.2s0-.2-.2-.2h-2.1c-.1,0-.2-.1-.2-.2v-3.7c0,0,0-.2-.2-.2ZM13.2,16.4h-2.1c-.3,0-.5-.2-.5-.5s.2-.5.5-.5h2v-3.6c0-.3.2-.5.5-.5s.5.2.5.5v3.7c0,.5-.4.9-.9.9ZM11,15.7c0,0-.2,0-.2.2s0,.2.2.2h2.1c.3,0,.6-.3.6-.6v-3.7c0,0,0-.2-.2-.2s-.2,0-.2.2v3.7c0,.1,0,.2-.2.2h-2.1ZM15.5,15.2c-.3,0-.5-.2-.5-.5v-2.4c0-.3.2-.5.5-.5s.5.2.5.5v2.4c0,.3-.2.5-.5.5ZM15.5,12.2c0,0-.2,0-.2.2v2.4c0,0,0,.2.2.2s.2,0,.2-.2v-2.4c0,0,0-.2-.2-.2Z"/>
            </g>
          </g>
        </g>
      </g>
    </g>
  </g>
</svg>