<?xml version="1.0" encoding="UTF-8"?>
<svg id="Capa_1" data-name="Capa 1" xmlns="http://www.w3.org/2000/svg" version="1.1" viewBox="0 0 131.2 28.7">
  <defs>
    <style>
      .cls-1 {
        fill: #0075be;
        stroke-width: 0px;
      }
    </style>
  </defs>
  <path class="cls-1" d="M126,19.7h-10l6.7-17h-11.5s-2.9,6.9-2.9,6.9h3.4l-7.9,17.4h25.6l-3.3-7.3ZM106.6,9.6l2.9-6.9h-23.9s0,6.9,0,6.9h9.6s0,17.4,0,17.4h7.7V9.6s3.7,0,3.7,0ZM83,13.6c1.5-1.8,1.6-4.2.9-6.7-.9-2.5-3.6-4-6.2-4.2h-13.5s0,8.2,0,8.2c-1.4-5-6.6-7.9-11.4-8.2h-10s0,11.4,0,11.4l-7.1-11.5h-7.4v9.7s7,14.6,7,14.6h.3v-11.7l6.9,11.7h7.7s0-17.4,0-17.4c2.5-.3,4.8.6,6.2,2.7.7,1.1,1,3,.4,4.2-.9,2-3.1,3.1-5.2,3.2v7.3s1.9,0,4.1-.5c3.6-.8,7.4-4.6,8.4-8.4v8.9h7.8v-12s6.8,12,6.8,12h14.5v-15.8h-7.5v11.8s-5.3-7.5-5.3-7.5c.7-.3,2.1-1.4,2.6-1.9M76.5,11.3c0,3-4.6,2.5-4.6,2.5v-4.5s4.6-.9,4.6,2M33.7,27L21.8,2.7h-8.2S1.8,27,1.8,27h20.9l-3.1-7.1h-5.7l3.7-8.3,6.9,15.4h9.1Z"/>
</svg>