<?xml version="1.0" encoding="UTF-8"?>
<svg id="Capa_1" data-name="Capa 1" xmlns="http://www.w3.org/2000/svg" version="1.1" viewBox="0 0 175.6 57.1">
  <defs>
    <style>
      .cls-1 {
        fill: #fff;
        stroke-width: 0px;
      }
    </style>
  </defs>
  <path class="cls-1" d="M148.3,19.7h-10l6.7-17h-11.5s-2.9,6.9-2.9,6.9h3.4l-7.9,17.4h25.6l-3.3-7.3ZM128.8,9.5l2.9-6.9h-23.9s0,6.9,0,6.9h9.6s0,17.4,0,17.4h7.7V9.5s3.7,0,3.7,0ZM105.2,13.6c1.5-1.8,1.6-4.2.9-6.7-.9-2.5-3.6-4-6.2-4.2h-13.5s0,8.2,0,8.2c-1.4-5-6.6-7.9-11.4-8.2h-10s0,11.4,0,11.4l-7.1-11.5h-7.4v9.7s7,14.6,7,14.6h.3v-11.7l6.9,11.7h7.7s0-17.4,0-17.4c2.5-.3,4.8.6,6.2,2.7.7,1.1,1,3,.4,4.2-.9,2-3.1,3.1-5.2,3.2v7.3s1.9,0,4.1-.5c3.6-.8,7.4-4.6,8.4-8.4v8.9h7.8v-12s6.8,12,6.8,12h14.5v-15.8h-7.5v11.8s-5.3-7.5-5.3-7.5c.7-.3,2.1-1.4,2.6-1.9M98.7,11.3c0,3-4.6,2.5-4.6,2.5v-4.5s4.6-.9,4.6,2M56,26.9L44,2.6h-8.2s-11.8,24.3-11.8,24.3h20.9l-3.1-7.1h-5.7l3.7-8.3,6.9,15.4h9.1Z"/>
  <path class="cls-1" d="M4.5,52.6v-2h3.3v-1.6h-3.3v-1.9h3.7v-1.7H2.8v8.8h5.5v-1.7h-3.7ZM17.6,45.5v5.4l-3.8-5.4h-1.3v8.8h1.7v-5.4l3.8,5.4h1.3v-8.8h-1.7ZM31.4,49.5h-4.4v1.5h2.7c-.3,1-1.2,1.7-2.6,1.7s-3-1.2-3-2.9,1.2-2.9,2.9-2.9,2,.5,2.4,1.2l1.5-.9c-.7-1.2-2.2-2.1-3.8-2.1-2.6,0-4.6,2-4.6,4.6s2,4.6,4.7,4.6,4.3-1.7,4.3-4.2v-.7ZM34.7,54.3h1.7v-8.8h-1.7v8.8ZM45.4,45.5v5.4l-3.8-5.4h-1.3v8.8h1.7v-5.4l3.8,5.4h1.3v-8.8h-1.7ZM53,52.6v-2h3.3v-1.6h-3.3v-1.9h3.7v-1.7h-5.4v8.8h5.5v-1.7h-3.7ZM62.8,52.6v-2h3.3v-1.6h-3.3v-1.9h3.7v-1.7h-5.4v8.8h5.5v-1.7h-3.7ZM75.4,54.3h1.9l-2-3.3c1-.5,1.7-1.5,1.7-2.6,0-1.6-1.3-2.9-2.9-2.9h-3.5v8.8h1.7v-3.1h1.3l1.8,3.1ZM72.3,47.1h1.8c.7,0,1.2.6,1.2,1.3s-.5,1.3-1.2,1.3h-1.8v-2.6ZM82.6,52.6v-2h3.3v-1.6h-3.3v-1.9h3.7v-1.7h-5.4v8.8h5.5v-1.7h-3.7ZM93.8,45.5h-3.5v8.8h3.5c2.4,0,4.2-1.9,4.2-4.4s-1.8-4.4-4.2-4.4M93.8,52.6h-1.8v-5.5h1.8c1.5,0,2.6,1.1,2.6,2.7s-1.1,2.7-2.6,2.7M110.4,54.5c1.9,0,3.2-1,3.2-2.7s-1.5-2.3-2.9-2.7c-1.3-.4-1.7-.7-1.7-1.2s.4-.9,1.2-.9,1.4.5,1.7,1.1l1.5-.8c-.6-1.2-1.7-2-3.1-2s-2.9,1-2.9,2.6,1.3,2.2,2.7,2.6c1.3.4,1.9.6,1.9,1.3s-.4.9-1.4.9-1.7-.5-2-1.3l-1.5.9c.5,1.3,1.7,2.2,3.5,2.2M120.3,54.5c1.9,0,3.4-1.2,3.4-3.1v-5.9h-1.7v5.8c0,.9-.5,1.5-1.6,1.5s-1.6-.6-1.6-1.5v-5.8h-1.7v5.9c0,1.9,1.4,3.1,3.4,3.1M131,54.5c1.6,0,3-.8,3.8-2.1l-1.5-.9c-.4.8-1.3,1.2-2.3,1.2-1.7,0-2.9-1.2-2.9-2.9s1.1-2.9,2.9-2.9,1.9.5,2.3,1.3l1.5-.9c-.8-1.3-2.2-2.1-3.8-2.1-2.7,0-4.6,2-4.6,4.6s1.9,4.6,4.6,4.6M141.5,54.5c1.6,0,3-.8,3.8-2.1l-1.5-.9c-.4.8-1.3,1.2-2.3,1.2-1.7,0-2.9-1.2-2.9-2.9s1.1-2.9,2.9-2.9,1.9.5,2.3,1.3l1.5-.9c-.8-1.3-2.2-2.1-3.8-2.1-2.7,0-4.6,2-4.6,4.6s1.9,4.6,4.6,4.6M149.9,52.6v-2h3.3v-1.6h-3.3v-1.9h3.7v-1.7h-5.4v8.8h5.5v-1.7h-3.7ZM160.2,54.5c1.9,0,3.2-1,3.2-2.7s-1.5-2.3-2.9-2.7c-1.3-.4-1.7-.7-1.7-1.2s.4-.9,1.2-.9,1.4.5,1.7,1.1l1.5-.8c-.6-1.2-1.7-2-3.1-2s-2.9,1-2.9,2.6,1.3,2.2,2.7,2.6c1.3.4,1.9.6,1.9,1.3s-.4.9-1.4.9-1.7-.5-2-1.3l-1.5.9c.5,1.3,1.7,2.2,3.5,2.2M169.7,54.5c1.9,0,3.2-1,3.2-2.7s-1.5-2.3-2.9-2.7c-1.3-.4-1.7-.7-1.7-1.2s.4-.9,1.2-.9,1.4.5,1.7,1.1l1.5-.8c-.6-1.2-1.7-2-3.1-2s-2.9,1-2.9,2.6,1.3,2.2,2.7,2.6c1.3.4,1.9.6,1.9,1.3s-.4.9-1.4.9-1.7-.5-2-1.3l-1.5.9c.5,1.3,1.7,2.2,3.5,2.2"/>
</svg>